<svg xmlns="http://www.w3.org/2000/svg" width="161.043" height="25.01" viewBox="0 0 161.043 25.01">
  <g id="Group_710" data-name="Group 710" transform="translate(-44.26 -494)">
    <text id="DataClap" transform="translate(112.808 514)" fill="#fff" font-size="22" font-family="Georgia-Bold, Georgia" font-weight="700"><tspan x="-52.094" y="0">DataClap</tspan></text>
    <path id="DC" d="M5.228,18.744H0V0H5.228a7.121,7.121,0,0,1,3,.591,5.338,5.338,0,0,1,2.125,1.772,11.02,11.02,0,0,1,1.663,5.892,1.431,1.431,0,0,1-.7.191c-.335,0-.576-.129-.646-.344A25.4,25.4,0,0,0,9.64,5.332,3.39,3.39,0,0,0,9,4.573a2.915,2.915,0,0,0-.919-.537,3.667,3.667,0,0,0-1.271-.2A3.287,3.287,0,0,0,3.888,5.263,7.406,7.406,0,0,0,2.93,9.376c0,.009,0,.018,0,.027v0c0,.009,0,.019,0,.028a7.4,7.4,0,0,0,.958,4.113,3.286,3.286,0,0,0,2.918,1.427,3.667,3.667,0,0,0,1.271-.2A2.918,2.918,0,0,0,9,14.239a3.372,3.372,0,0,0,.644-.76,25.4,25.4,0,0,0,1.021-2.77c.07-.215.311-.344.646-.344a1.432,1.432,0,0,1,.7.189,10.956,10.956,0,0,1-1.66,5.826,5.338,5.338,0,0,1-2.125,1.773A7.12,7.12,0,0,1,5.228,18.744Z" transform="translate(44.26 497.351)" fill="#fff"/>
    <text id="BPM" transform="translate(187.302 514.01)" fill="#fff" font-size="18" font-family="Corbel"><tspan x="-17.868" y="0">BPM</tspan></text>
  </g>
</svg>
