<svg xmlns="http://www.w3.org/2000/svg" width="572" height="93" viewBox="0 0 572 93"><defs><style>.a,.b{fill:#dce8ff;}.a{font-size:82px;font-family:Georgia-Bold, Georgia;font-weight:700;}.c{fill:#15c;font-size:58px;font-family:Roboto Mono;font-weight:500;}</style></defs><g transform="translate(-2146 -1046)"><g transform="translate(2111.48 -2295)"><text class="a" transform="translate(290 3416)"><tspan x="-194.169" y="0">DataClap</tspan></text><path class="b" d="M19.108,68.506H0V0H19.108A26.025,26.025,0,0,1,30.057,2.159a19.511,19.511,0,0,1,7.765,6.477C41.411,13.658,43.455,20.9,43.9,30.171a5.229,5.229,0,0,1-2.575.7c-1.224,0-2.107-.47-2.361-1.258a92.834,92.834,0,0,0-3.731-10.123,12.391,12.391,0,0,0-2.353-2.776,10.655,10.655,0,0,0-3.359-1.962,13.4,13.4,0,0,0-4.647-.729c-4.756,0-8.344,1.754-10.666,5.215s-3.5,8.519-3.5,15.03c0,.033,0,.067,0,.1v.016c0,.035,0,.068,0,.1,0,6.513,1.178,11.57,3.5,15.031s5.909,5.216,10.666,5.216A13.4,13.4,0,0,0,29.522,54a10.666,10.666,0,0,0,3.359-1.964,12.324,12.324,0,0,0,2.353-2.776A92.843,92.843,0,0,0,38.964,39.14c.255-.787,1.137-1.257,2.361-1.257a5.235,5.235,0,0,1,2.563.691c-.468,9.153-2.509,16.317-6.066,21.294a19.509,19.509,0,0,1-7.765,6.478A26.021,26.021,0,0,1,19.108,68.506Z" transform="translate(34.519 3353.303)"/></g><text class="c" transform="translate(2665 1115)"><tspan x="-52.208" y="0">BPM</tspan></text></g></svg>